<?xml version="1.0" encoding="UTF-8" standalone="no"?>
<svg width="500px" height="500px" viewBox="0 0 500 500" version="1.1" xmlns="http://www.w3.org/2000/svg" >
    
    <g id="Page-1" stroke="none" stroke-width="1"  fill-rule="evenodd">
        <g id="Qiita" >
            <path d="M0,0 L500,0 L500,500 L0,500 L0,0 Z M352.85966,390.179184 C322.33001,412.095668 284.894211,425 244.444444,425 C141.658116,425 58.3333333,341.675217 58.3333333,238.888889 C58.3333333,136.10256 141.658116,52.7777778 244.444444,52.7777778 C347.230773,52.7777778 430.555556,136.10256 430.555556,238.888889 C430.555556,282.187826 415.769309,322.03325 390.97075,353.651226 L446.902156,409.582632 L409.582632,446.902156 L352.85966,390.179184 L352.85966,390.179184 Z M244.444444,372.222222 C318.082411,372.222222 377.777778,312.526856 377.777778,238.888889 C377.777778,165.250922 318.082411,105.555556 244.444444,105.555556 C170.806478,105.555556 111.111111,165.250922 111.111111,238.888889 C111.111111,312.526856 170.806478,372.222222 244.444444,372.222222 L244.444444,372.222222 L244.444444,372.222222 Z" id="icon"></path>
        </g>
    </g>
</svg>